<svg width="203" height="24" viewBox="0 0 203 24" fill="none" xmlns="http://www.w3.org/2000/svg">
<path d="M0 0H74.7143V24H0V0Z" fill="#FFA082"/>
<path d="M15.0671 15.3207C15.1824 15.3207 15.2845 15.3652 15.3736 15.4543L16.2064 16.3578C15.7455 16.9288 15.1771 17.3662 14.5014 17.67C13.8309 17.9738 13.0243 18.1257 12.0814 18.1257C11.2381 18.1257 10.4786 17.9817 9.80284 17.6936C9.13236 17.4055 8.55879 17.0048 8.08212 16.4914C7.60546 15.9781 7.23879 15.3652 6.98212 14.6528C6.73069 13.9405 6.60498 13.1626 6.60498 12.3193C6.60498 11.4655 6.74117 10.685 7.01355 9.97785C7.28593 9.26547 7.66831 8.65261 8.16069 8.13928C8.65831 7.62594 9.25022 7.22785 9.93641 6.94499C10.6226 6.6569 11.3821 6.51285 12.215 6.51285C13.0426 6.51285 13.7759 6.64904 14.415 6.92142C15.0593 7.1938 15.6066 7.54999 16.0571 7.98999L15.35 8.97213C15.3081 9.03499 15.2531 9.08999 15.185 9.13713C15.1221 9.18428 15.0331 9.20785 14.9178 9.20785C14.8393 9.20785 14.7581 9.18689 14.6743 9.14499C14.5905 9.09785 14.4988 9.04285 14.3993 8.97999C14.2997 8.9119 14.1845 8.83856 14.0536 8.75999C13.9226 8.68142 13.7707 8.6107 13.5978 8.54785C13.425 8.47975 13.2233 8.42475 12.9928 8.38285C12.7676 8.3357 12.5057 8.31213 12.2071 8.31213C11.699 8.31213 11.2328 8.4038 10.8086 8.58713C10.3895 8.76523 10.0281 9.02713 9.72427 9.37285C9.42046 9.71332 9.18474 10.1324 9.01712 10.63C8.8495 11.1224 8.76569 11.6855 8.76569 12.3193C8.76569 12.9583 8.85474 13.5267 9.03284 14.0243C9.21617 14.5219 9.46236 14.9409 9.77141 15.2814C10.0805 15.6219 10.4445 15.8838 10.8636 16.0671C11.2826 16.2452 11.7331 16.3343 12.215 16.3343C12.5031 16.3343 12.7624 16.3186 12.9928 16.2871C13.2286 16.2557 13.4433 16.2059 13.6371 16.1378C13.8362 16.0698 14.0221 15.9833 14.195 15.8786C14.3731 15.7686 14.5486 15.635 14.7214 15.4778C14.7738 15.4307 14.8288 15.394 14.8864 15.3678C14.944 15.3364 15.0043 15.3207 15.0671 15.3207Z" fill="white"/>
<path d="M34.2151 12.3193C34.2151 13.1521 34.0763 13.9248 33.7987 14.6371C33.5263 15.3443 33.1387 15.9571 32.6358 16.4757C32.133 16.9943 31.528 17.4002 30.8208 17.6936C30.1137 17.9817 29.328 18.1257 28.4637 18.1257C27.6046 18.1257 26.8215 17.9817 26.1144 17.6936C25.4072 17.4002 24.7996 16.9943 24.2915 16.4757C23.7887 15.9571 23.3984 15.3443 23.1208 14.6371C22.8432 13.9248 22.7044 13.1521 22.7044 12.3193C22.7044 11.4864 22.8432 10.7164 23.1208 10.0093C23.3984 9.29689 23.7887 8.68142 24.2915 8.16285C24.7996 7.64428 25.4072 7.24094 26.1144 6.95285C26.8215 6.65951 27.6046 6.51285 28.4637 6.51285C29.0399 6.51285 29.582 6.58094 30.0901 6.71713C30.5982 6.84809 31.0644 7.03666 31.4887 7.28285C31.913 7.5238 32.2927 7.81975 32.628 8.1707C32.9684 8.51642 33.2565 8.90404 33.4922 9.33356C33.728 9.76309 33.9061 10.2293 34.0265 10.7321C34.1522 11.235 34.2151 11.764 34.2151 12.3193ZM32.0544 12.3193C32.0544 11.6959 31.9706 11.1381 31.803 10.6457C31.6353 10.1481 31.397 9.72642 31.088 9.3807C30.7789 9.03499 30.4018 8.77047 29.9565 8.58713C29.5165 8.4038 29.0189 8.31213 28.4637 8.31213C27.9084 8.31213 27.4082 8.4038 26.963 8.58713C26.523 8.77047 26.1458 9.03499 25.8315 9.3807C25.5225 9.72642 25.2842 10.1481 25.1165 10.6457C24.9489 11.1381 24.8651 11.6959 24.8651 12.3193C24.8651 12.9426 24.9489 13.5031 25.1165 14.0007C25.2842 14.4931 25.5225 14.9121 25.8315 15.2578C26.1458 15.5983 26.523 15.8602 26.963 16.0436C27.4082 16.2269 27.9084 16.3186 28.4637 16.3186C29.0189 16.3186 29.5165 16.2269 29.9565 16.0436C30.4018 15.8602 30.7789 15.5983 31.088 15.2578C31.397 14.9121 31.6353 14.4931 31.803 14.0007C31.9706 13.5031 32.0544 12.9426 32.0544 12.3193Z" fill="white"/>
<path d="M52.1312 12.3193C52.1312 13.1521 51.9924 13.9169 51.7148 14.6136C51.4372 15.3102 51.0469 15.91 50.5441 16.4128C50.0412 16.9157 49.4362 17.3059 48.7291 17.5836C48.0219 17.8612 47.2362 18 46.372 18H42.0427V6.63856H46.372C47.2362 6.63856 48.0219 6.77999 48.7291 7.06285C49.4362 7.34047 50.0412 7.7307 50.5441 8.23356C51.0469 8.73118 51.4372 9.32832 51.7148 10.025C51.9924 10.7217 52.1312 11.4864 52.1312 12.3193ZM49.9627 12.3193C49.9627 11.6959 49.8789 11.1381 49.7112 10.6457C49.5489 10.1481 49.3105 9.72904 48.9962 9.38856C48.6872 9.04285 48.31 8.77832 47.8648 8.59499C47.4248 8.41166 46.9272 8.31999 46.372 8.31999H44.1641V16.3186H46.372C46.9272 16.3186 47.4248 16.2269 47.8648 16.0436C48.31 15.8602 48.6872 15.5983 48.9962 15.2578C49.3105 14.9121 49.5489 14.4931 49.7112 14.0007C49.8789 13.5031 49.9627 12.9426 49.9627 12.3193Z" fill="white"/>
<path d="M62.09 8.31999V11.4707H66.0658V13.0971H62.09V16.3107H67.1343V18H59.9686V6.63856H67.1343V8.31999H62.09Z" fill="white"/>
<path d="M87.2301 16.35C87.6229 16.35 87.9529 16.3028 88.2201 16.2086C88.4872 16.1143 88.6994 15.9886 88.8565 15.8314C89.0189 15.6743 89.1341 15.4909 89.2022 15.2814C89.2756 15.0719 89.3122 14.8493 89.3122 14.6136C89.3122 14.3674 89.2729 14.1474 89.1944 13.9536C89.1158 13.7545 88.9927 13.5869 88.8251 13.4507C88.6575 13.3093 88.4401 13.2019 88.1729 13.1286C87.911 13.0552 87.5941 13.0186 87.2222 13.0186H85.0929V16.35H87.2301ZM85.0929 8.27285V11.5571H86.7744C87.4972 11.5571 88.042 11.4262 88.4087 11.1643C88.7806 10.9024 88.9665 10.4859 88.9665 9.91499C88.9665 9.32309 88.7989 8.90142 88.4637 8.64999C88.1284 8.39856 87.6046 8.27285 86.8922 8.27285H85.0929ZM86.8922 6.63856C87.636 6.63856 88.2725 6.70928 88.8015 6.8507C89.3306 6.99213 89.7627 7.1938 90.0979 7.4557C90.4384 7.71761 90.6872 8.03451 90.8444 8.40642C91.0015 8.77832 91.0801 9.19737 91.0801 9.66356C91.0801 9.9307 91.0408 10.1874 90.9622 10.4336C90.8837 10.6745 90.7606 10.9024 90.5929 11.1171C90.4306 11.3267 90.221 11.5178 89.9644 11.6907C89.7129 11.8636 89.4118 12.0102 89.0608 12.1307C90.6218 12.4817 91.4022 13.325 91.4022 14.6607C91.4022 15.1426 91.3106 15.5878 91.1272 15.9964C90.9439 16.405 90.6768 16.7586 90.3258 17.0571C89.9748 17.3505 89.5427 17.5809 89.0294 17.7486C88.516 17.9162 87.9294 18 87.2694 18H82.9794V6.63856H86.8922Z" fill="#121212"/>
<path d="M105.949 16.2557V18H99.294V6.63856H101.408V16.2557H105.949Z" fill="#121212"/>
<path d="M115.551 8.31999V11.4707H119.527V13.0971H115.551V16.3107H120.595V18H113.429V6.63856H120.595V8.31999H115.551Z" fill="#121212"/>
<path d="M138.018 6.63856V18H136.933C136.766 18 136.624 17.9738 136.509 17.9214C136.399 17.8638 136.292 17.7695 136.187 17.6386L130.255 10.0643C130.286 10.41 130.302 10.7295 130.302 11.0228V18H128.44V6.63856H129.548C129.637 6.63856 129.713 6.6438 129.775 6.65428C129.844 6.65951 129.901 6.67523 129.948 6.70142C130.001 6.72237 130.05 6.75642 130.098 6.80356C130.145 6.84547 130.197 6.90309 130.255 6.97642L136.21 14.5821C136.195 14.3988 136.182 14.2181 136.171 14.04C136.161 13.8619 136.155 13.6969 136.155 13.545V6.63856H138.018Z" fill="#121212"/>
<path d="M156.608 12.3193C156.608 13.1521 156.469 13.9169 156.191 14.6136C155.914 15.3102 155.523 15.91 155.021 16.4128C154.518 16.9157 153.913 17.3059 153.206 17.5836C152.498 17.8612 151.713 18 150.848 18H146.519V6.63856H150.848C151.713 6.63856 152.498 6.77999 153.206 7.06285C153.913 7.34047 154.518 7.7307 155.021 8.23356C155.523 8.73118 155.914 9.32832 156.191 10.025C156.469 10.7217 156.608 11.4864 156.608 12.3193ZM154.439 12.3193C154.439 11.6959 154.355 11.1381 154.188 10.6457C154.025 10.1481 153.787 9.72904 153.473 9.38856C153.164 9.04285 152.786 8.77832 152.341 8.59499C151.901 8.41166 151.404 8.31999 150.848 8.31999H148.641V16.3186H150.848C151.404 16.3186 151.901 16.2269 152.341 16.0436C152.786 15.8602 153.164 15.5983 153.473 15.2578C153.787 14.9121 154.025 14.4931 154.188 14.0007C154.355 13.5031 154.439 12.9426 154.439 12.3193Z" fill="#121212"/>
<path d="M166.566 18H164.445V6.63856H166.566V18Z" fill="#121212"/>
<path d="M184.66 6.63856V18H183.575C183.408 18 183.266 17.9738 183.151 17.9214C183.041 17.8638 182.934 17.7695 182.829 17.6386L176.897 10.0643C176.928 10.41 176.944 10.7295 176.944 11.0228V18H175.082V6.63856H176.19C176.279 6.63856 176.355 6.6438 176.417 6.65428C176.485 6.65951 176.543 6.67523 176.59 6.70142C176.643 6.72237 176.692 6.75642 176.74 6.80356C176.787 6.84547 176.839 6.90309 176.897 6.97642L182.852 14.5821C182.837 14.3988 182.824 14.2181 182.813 14.04C182.803 13.8619 182.797 13.6969 182.797 13.545V6.63856H184.66Z" fill="#121212"/>
<path d="M202.527 12.3036V16.9C201.951 17.3243 201.335 17.6359 200.68 17.835C200.031 18.0288 199.334 18.1257 198.59 18.1257C197.663 18.1257 196.823 17.9817 196.068 17.6936C195.319 17.4055 194.677 17.0048 194.143 16.4914C193.614 15.9781 193.206 15.3652 192.918 14.6528C192.629 13.9405 192.485 13.1626 192.485 12.3193C192.485 11.4655 192.624 10.6824 192.902 9.96999C193.179 9.25761 193.572 8.64475 194.08 8.13142C194.594 7.61809 195.214 7.21999 195.943 6.93713C196.671 6.65428 197.488 6.51285 198.394 6.51285C198.855 6.51285 199.284 6.54951 199.683 6.62285C200.086 6.69618 200.458 6.79832 200.798 6.92928C201.144 7.05499 201.458 7.20951 201.741 7.39285C202.024 7.57618 202.283 7.77785 202.519 7.99785L201.914 8.95642C201.82 9.10832 201.697 9.20261 201.545 9.23928C201.393 9.2707 201.228 9.23142 201.05 9.12142C200.877 9.02189 200.704 8.92237 200.531 8.82285C200.358 8.72332 200.164 8.6369 199.95 8.56356C199.74 8.49023 199.502 8.42999 199.235 8.38285C198.973 8.3357 198.669 8.31213 198.323 8.31213C197.763 8.31213 197.255 8.40642 196.799 8.59499C196.348 8.78356 195.963 9.05332 195.644 9.40428C195.324 9.75523 195.078 10.1769 194.905 10.6693C194.732 11.1617 194.646 11.7117 194.646 12.3193C194.646 12.9688 194.738 13.5502 194.921 14.0636C195.11 14.5717 195.372 15.0038 195.707 15.36C196.047 15.7109 196.456 15.9807 196.933 16.1693C197.409 16.3526 197.941 16.4443 198.527 16.4443C198.947 16.4443 199.321 16.3998 199.651 16.3107C199.981 16.2217 200.303 16.1012 200.617 15.9493V13.8907H199.187C199.051 13.8907 198.944 13.854 198.865 13.7807C198.792 13.7021 198.755 13.6078 198.755 13.4978V12.3036H202.527Z" fill="#121212"/>
</svg>
